<svg width="24" height="24" viewBox="0 0 24 24" fill="none" xmlns="http://www.w3.org/2000/svg">
<path d="M18.2222 11.1111H5.77778M18.2222 11.1111C18.6937 11.1111 19.1459 11.2984 19.4793 11.6318C19.8127 11.9652 20 12.4174 20 12.8889V18.2222C20 18.6937 19.8127 19.1459 19.4793 19.4793C19.1459 19.8127 18.6937 20 18.2222 20H5.77778C5.30628 20 4.8541 19.8127 4.5207 19.4793C4.1873 19.1459 4 18.6937 4 18.2222V12.8889C4 12.4174 4.1873 11.9652 4.5207 11.6318C4.8541 11.2984 5.30628 11.1111 5.77778 11.1111M18.2222 11.1111V9.33333C18.2222 8.86184 18.0349 8.40965 17.7015 8.07625C17.3681 7.74286 16.9159 7.55556 16.4444 7.55556M5.77778 11.1111V9.33333C5.77778 8.86184 5.96508 8.40965 6.29848 8.07625C6.63187 7.74286 7.08406 7.55556 7.55556 7.55556M16.4444 7.55556V5.77778C16.4444 5.30628 16.2571 4.8541 15.9237 4.5207C15.5903 4.1873 15.1382 4 14.6667 4H9.33333C8.86184 4 8.40965 4.1873 8.07625 4.5207C7.74286 4.8541 7.55556 5.30628 7.55556 5.77778V7.55556M16.4444 7.55556H7.55556" stroke="black" stroke-width="1.77778" stroke-linecap="round" stroke-linejoin="round"/>
</svg>
